<svg width="770" height="564" viewBox="0 0 770 564" fill="none" xmlns="http://www.w3.org/2000/svg">
<path d="M35.2 25.032C41.7707 25.032 46.976 26.44 50.816 29.256C54.656 32.072 56.576 36.0827 56.576 41.288C56.576 44.616 55.7227 47.6453 54.016 50.376C52.3947 53.1067 50.2187 55.7093 47.488 58.184C44.7573 60.5733 41.8133 62.8347 38.656 64.968C35.584 67.1013 32.5973 69.2347 29.696 71.368C26.7947 73.416 24.32 75.5493 22.272 77.768H49.92C53.4187 77.768 55.6373 77.3413 56.576 76.488C57.5147 75.6347 58.1547 74.1413 58.496 72.008H61.184C61.184 77.7253 61.2267 82.1627 61.312 85.32C61.3973 88.4773 61.5253 91.2507 61.696 93.64C60.928 93.4693 59.52 93.3413 57.472 93.256C55.424 93.1707 53.0773 93.0853 50.432 93C47.7867 93 45.184 93 42.624 93H5.376V90.568C7.76533 88.008 10.7093 85.192 14.208 82.12C17.7067 79.048 21.12 75.6347 24.448 71.88C27.8613 68.1253 30.72 64.072 33.024 59.72C35.328 55.2827 36.48 50.5467 36.48 45.512C36.48 40.904 35.456 37.576 33.408 35.528C31.36 33.48 28.416 32.456 24.576 32.456C20.9067 32.456 17.664 33.3093 14.848 35.016C12.1173 36.6373 9.64267 39.0693 7.424 42.312L5.248 41.032C6.95467 38.1307 9.088 35.4853 11.648 33.096C14.2933 30.6213 17.536 28.6587 21.376 27.208C25.216 25.7573 29.824 25.032 35.2 25.032Z" fill="white"/>
<path d="M228.207 2.37599C227.866 6.13066 227.61 9.75732 227.439 13.256C227.354 16.7547 227.311 19.4427 227.311 21.32C227.311 23.0267 227.354 24.648 227.439 26.184C227.524 27.72 227.61 29 227.695 30.024H224.751C223.898 23.7947 222.575 18.888 220.783 15.304C218.991 11.6347 216.644 9.07466 213.743 7.62399C210.927 6.08799 207.599 5.31999 203.759 5.31999H198.511C196.036 5.31999 194.159 5.53332 192.879 5.95999C191.599 6.38666 190.746 7.23999 190.319 8.51999C189.892 9.79999 189.679 11.7627 189.679 14.408V80.968C189.679 83.6133 189.892 85.576 190.319 86.856C190.746 88.136 191.599 88.9893 192.879 89.416C194.159 89.8427 196.036 90.056 198.511 90.056H204.783C208.623 90.056 211.994 89.2453 214.895 87.624C217.882 85.9173 220.399 83.0587 222.447 79.048C224.58 75.0373 226.202 69.6187 227.311 62.792H230.255C229.999 65.5227 229.871 69.1067 229.871 73.544C229.871 75.5067 229.914 78.28 229.999 81.864C230.084 85.448 230.34 89.16 230.767 93C226.415 92.8293 221.508 92.744 216.047 92.744C210.586 92.6587 205.722 92.616 201.455 92.616C199.322 92.616 196.591 92.616 193.263 92.616C189.935 92.616 186.351 92.6587 182.511 92.744C178.671 92.744 174.788 92.7867 170.863 92.872C166.938 92.872 163.226 92.9147 159.727 93V90.44C162.458 90.2693 164.506 89.928 165.871 89.416C167.236 88.904 168.132 87.88 168.559 86.344C169.071 84.808 169.327 82.504 169.327 79.432V15.944C169.327 12.7867 169.071 10.4827 168.559 9.03199C168.132 7.49599 167.194 6.47199 165.743 5.95999C164.378 5.36266 162.372 5.02132 159.727 4.93599V2.37599C163.226 2.46133 166.938 2.54666 170.863 2.63199C174.788 2.63199 178.671 2.67466 182.511 2.75999C186.351 2.75999 189.935 2.75999 193.263 2.75999C196.591 2.75999 199.322 2.75999 201.455 2.75999C205.38 2.75999 209.818 2.75999 214.767 2.75999C219.802 2.67466 224.282 2.54666 228.207 2.37599ZM208.239 46.152C208.239 46.152 208.239 46.5787 208.239 47.432C208.239 48.2853 208.239 48.712 208.239 48.712H185.839C185.839 48.712 185.839 48.2853 185.839 47.432C185.839 46.5787 185.839 46.152 185.839 46.152H208.239ZM211.951 29.256C211.61 34.12 211.439 37.832 211.439 40.392C211.524 42.952 211.567 45.2987 211.567 47.432C211.567 49.5653 211.61 51.912 211.695 54.472C211.78 57.032 211.994 60.744 212.335 65.608H209.391C208.964 62.6213 208.154 59.848 206.959 57.288C205.85 54.728 204.228 52.68 202.095 51.144C199.962 49.5227 197.188 48.712 193.775 48.712V46.152C196.335 46.152 198.511 45.64 200.303 44.616C202.095 43.5067 203.546 42.0987 204.655 40.392C205.85 38.6 206.788 36.7227 207.471 34.76C208.154 32.7973 208.666 30.9627 209.007 29.256H211.951Z" fill="white"/>
<path d="M287.188 25.032C290.772 25.032 293.673 25.5013 295.892 26.44C298.196 27.2933 299.988 28.488 301.268 30.024C302.633 31.6453 303.615 33.736 304.212 36.296C304.895 38.856 305.236 42.312 305.236 46.664V81.096C305.236 84.68 305.833 87.112 307.028 88.392C308.308 89.672 310.441 90.312 313.428 90.312V93C311.807 92.9147 309.375 92.8293 306.132 92.744C302.889 92.5733 299.689 92.488 296.532 92.488C293.289 92.488 290.089 92.5733 286.932 92.744C283.86 92.8293 281.513 92.9147 279.892 93V90.312C282.452 90.312 284.244 89.672 285.268 88.392C286.292 87.112 286.804 84.68 286.804 81.096V41.288C286.804 39.1547 286.591 37.32 286.164 35.784C285.737 34.1627 284.969 32.9253 283.86 32.072C282.751 31.1333 281.087 30.664 278.868 30.664C276.564 30.664 274.431 31.304 272.468 32.584C270.591 33.864 269.055 35.656 267.86 37.96C266.751 40.1787 266.196 42.696 266.196 45.512V81.096C266.196 84.68 266.708 87.112 267.732 88.392C268.841 89.672 270.633 90.312 273.108 90.312V93C271.572 92.9147 269.311 92.8293 266.324 92.744C263.423 92.5733 260.393 92.488 257.236 92.488C253.993 92.488 250.665 92.5733 247.252 92.744C243.839 92.8293 241.279 92.9147 239.572 93V90.312C242.559 90.312 244.649 89.672 245.844 88.392C247.124 87.112 247.764 84.68 247.764 81.096V40.776C247.764 36.936 247.167 34.12 245.972 32.328C244.863 30.4507 242.729 29.512 239.572 29.512V26.824C242.303 27.08 244.948 27.208 247.508 27.208C251.092 27.208 254.42 27.08 257.492 26.824C260.649 26.4827 263.551 26.0133 266.196 25.416V36.936C268.329 32.584 271.231 29.512 274.9 27.72C278.569 25.928 282.665 25.032 287.188 25.032Z" fill="white"/>
<path d="M351.477 25.032C354.805 25.032 357.834 25.416 360.565 26.184C363.381 26.8667 365.685 27.7627 367.477 28.872C369.696 30.2373 371.402 31.944 372.597 33.992C373.877 35.9547 374.517 38.2587 374.517 40.904C374.517 43.8907 373.578 46.3653 371.701 48.328C369.824 50.2053 367.392 51.144 364.405 51.144C361.418 51.144 359.029 50.2907 357.237 48.584C355.445 46.8773 354.549 44.5733 354.549 41.672C354.549 38.9413 355.402 36.68 357.109 34.888C358.816 33.0107 360.778 31.7733 362.997 31.176C362.314 30.3227 361.29 29.5973 359.925 29C358.56 28.4027 357.024 28.104 355.317 28.104C352.672 28.104 350.325 28.872 348.277 30.408C346.314 31.944 344.65 34.0773 343.285 36.808C341.92 39.5387 340.853 42.7387 340.085 46.408C339.402 50.0773 339.061 54.088 339.061 58.44C339.061 65.0107 339.872 70.1733 341.493 73.928C343.2 77.6827 345.333 80.328 347.893 81.864C350.538 83.4 353.269 84.168 356.085 84.168C357.706 84.168 359.456 83.912 361.333 83.4C363.296 82.888 365.258 81.864 367.221 80.328C369.269 78.792 371.146 76.616 372.853 73.8L375.029 74.568C374.09 77.7253 372.554 80.8827 370.421 84.04C368.288 87.1973 365.514 89.8 362.101 91.848C358.688 93.8107 354.506 94.792 349.557 94.792C344.01 94.792 338.976 93.5973 334.453 91.208C330.016 88.7333 326.432 84.9787 323.701 79.944C321.056 74.824 319.733 68.2533 319.733 60.232C319.733 52.552 321.098 46.1093 323.829 40.904C326.645 35.6133 330.442 31.6453 335.221 29C340 26.3547 345.418 25.032 351.477 25.032Z" fill="white"/>
<path d="M445.441 25.416V79.048C445.441 82.888 446.038 85.7467 447.233 87.624C448.428 89.416 450.561 90.312 453.633 90.312V93C450.988 92.744 448.342 92.616 445.697 92.616C442.113 92.616 438.785 92.744 435.713 93C432.641 93.256 429.74 93.7253 427.009 94.408V82.888C424.961 87.1547 422.102 90.2267 418.433 92.104C414.849 93.896 410.838 94.792 406.401 94.792C402.817 94.792 399.916 94.3227 397.697 93.384C395.478 92.4453 393.729 91.2507 392.449 89.8C390.998 88.1787 389.974 86.0453 389.377 83.4C388.78 80.7547 388.481 77.3413 388.481 73.16V40.776C388.481 36.936 387.884 34.12 386.689 32.328C385.58 30.4507 383.446 29.512 380.289 29.512V26.824C383.02 27.08 385.665 27.208 388.225 27.208C391.809 27.208 395.137 27.08 398.209 26.824C401.366 26.4827 404.268 26.0133 406.913 25.416V78.408C406.913 80.5413 407.084 82.4187 407.425 84.04C407.852 85.6613 408.62 86.9413 409.729 87.88C410.838 88.7333 412.46 89.16 414.593 89.16C416.897 89.16 418.945 88.52 420.737 87.24C422.614 85.96 424.108 84.2107 425.217 81.992C426.412 79.688 427.009 77.128 427.009 74.312V40.776C427.009 36.936 426.412 34.12 425.217 32.328C424.108 30.4507 421.974 29.512 418.817 29.512V26.824C421.548 27.08 424.193 27.208 426.753 27.208C430.337 27.208 433.665 27.08 436.737 26.824C439.894 26.4827 442.796 26.0133 445.441 25.416Z" fill="white"/>
<path d="M492.346 25.032C499.855 25.032 505.743 27.2507 510.01 31.688C514.277 36.1253 516.41 43.3787 516.41 53.448H474.298L474.042 51.016H500.282C500.367 46.8347 500.111 42.9947 499.514 39.496C498.917 35.912 497.978 33.0533 496.698 30.92C495.418 28.7867 493.711 27.72 491.578 27.72C488.591 27.72 486.031 29.5973 483.898 33.352C481.85 37.1067 480.613 43.336 480.186 52.04L480.57 52.808C480.485 53.832 480.399 54.8987 480.314 56.008C480.314 57.1173 480.314 58.2693 480.314 59.464C480.314 65.352 481.125 70.1307 482.746 73.8C484.453 77.4693 486.586 80.1573 489.146 81.864C491.706 83.4853 494.309 84.296 496.954 84.296C498.746 84.296 500.581 84.04 502.458 83.528C504.421 82.9307 506.383 81.9067 508.346 80.456C510.309 78.92 512.143 76.7867 513.85 74.056L516.154 74.824C515.13 78.0667 513.509 81.224 511.29 84.296C509.071 87.368 506.255 89.8853 502.842 91.848C499.429 93.8107 495.333 94.792 490.554 94.792C484.751 94.792 479.631 93.5547 475.194 91.08C470.757 88.6053 467.258 84.8507 464.698 79.816C462.223 74.7813 460.986 68.3813 460.986 60.616C460.986 52.68 462.309 46.0667 464.954 40.776C467.685 35.4853 471.397 31.56 476.09 29C480.869 26.3547 486.287 25.032 492.346 25.032Z" fill="white"/>
<path d="M570.688 25.032C574.272 25.032 577.173 25.5013 579.392 26.44C581.696 27.2933 583.488 28.488 584.768 30.024C586.133 31.6453 587.115 33.736 587.712 36.296C588.395 38.856 588.736 42.312 588.736 46.664V81.096C588.736 84.68 589.333 87.112 590.528 88.392C591.808 89.672 593.941 90.312 596.928 90.312V93C595.307 92.9147 592.875 92.8293 589.632 92.744C586.389 92.5733 583.189 92.488 580.032 92.488C576.789 92.488 573.589 92.5733 570.432 92.744C567.36 92.8293 565.013 92.9147 563.392 93V90.312C565.952 90.312 567.744 89.672 568.768 88.392C569.792 87.112 570.304 84.68 570.304 81.096V41.288C570.304 39.1547 570.091 37.32 569.664 35.784C569.237 34.1627 568.469 32.9253 567.36 32.072C566.251 31.1333 564.587 30.664 562.368 30.664C560.064 30.664 557.931 31.304 555.968 32.584C554.091 33.864 552.555 35.656 551.36 37.96C550.251 40.1787 549.696 42.696 549.696 45.512V81.096C549.696 84.68 550.208 87.112 551.232 88.392C552.341 89.672 554.133 90.312 556.608 90.312V93C555.072 92.9147 552.811 92.8293 549.824 92.744C546.923 92.5733 543.893 92.488 540.736 92.488C537.493 92.488 534.165 92.5733 530.752 92.744C527.339 92.8293 524.779 92.9147 523.072 93V90.312C526.059 90.312 528.149 89.672 529.344 88.392C530.624 87.112 531.264 84.68 531.264 81.096V40.776C531.264 36.936 530.667 34.12 529.472 32.328C528.363 30.4507 526.229 29.512 523.072 29.512V26.824C525.803 27.08 528.448 27.208 531.008 27.208C534.592 27.208 537.92 27.08 540.992 26.824C544.149 26.4827 547.051 26.0133 549.696 25.416V36.936C551.829 32.584 554.731 29.512 558.4 27.72C562.069 25.928 566.165 25.032 570.688 25.032Z" fill="white"/>
<path d="M627.681 5.83199V26.824H642.785V29.384H627.681V81.096C627.681 83.656 628.15 85.4907 629.089 86.6C630.028 87.624 631.436 88.136 633.313 88.136C634.849 88.136 636.385 87.5813 637.921 86.472C639.457 85.2773 640.822 83.272 642.017 80.456L644.193 81.608C642.828 85.448 640.737 88.6053 637.921 91.08C635.19 93.5547 631.436 94.792 626.657 94.792C623.841 94.792 621.366 94.408 619.233 93.64C617.1 92.9573 615.308 91.8907 613.857 90.44C611.98 88.5627 610.742 86.2587 610.145 83.528C609.548 80.712 609.249 77.0853 609.249 72.648V29.384H598.497V26.824H609.249V9.92799C612.833 9.92799 616.118 9.62932 619.105 9.03199C622.177 8.34932 625.036 7.28266 627.681 5.83199Z" fill="white"/>
<path d="M690.729 25.032C693.46 25.032 695.678 25.6293 697.385 26.824C699.092 27.9333 700.329 29.384 701.097 31.176C701.95 32.968 702.377 34.8453 702.377 36.808C702.377 39.9653 701.438 42.568 699.561 44.616C697.769 46.5787 695.38 47.56 692.393 47.56C689.406 47.56 687.06 46.8347 685.353 45.384C683.732 43.848 682.921 41.8427 682.921 39.368C682.921 36.9787 683.433 35.016 684.457 33.48C685.566 31.8587 686.932 30.4933 688.553 29.384C687.358 29.0427 686.164 29.0853 684.969 29.512C683.348 29.768 681.812 30.4507 680.361 31.56C678.91 32.584 677.673 33.9067 676.649 35.528C675.625 37.064 674.814 38.7707 674.217 40.648C673.62 42.44 673.321 44.1893 673.321 45.896V79.816C673.321 83.912 674.302 86.6853 676.265 88.136C678.313 89.5867 681.342 90.312 685.353 90.312V93C683.39 92.9147 680.532 92.8293 676.777 92.744C673.022 92.5733 669.097 92.488 665.001 92.488C661.588 92.488 658.132 92.5733 654.633 92.744C651.134 92.8293 648.489 92.9147 646.697 93V90.312C649.684 90.312 651.774 89.672 652.969 88.392C654.249 87.112 654.889 84.68 654.889 81.096V40.776C654.889 36.936 654.292 34.12 653.097 32.328C651.988 30.4507 649.854 29.512 646.697 29.512V26.824C649.428 27.08 652.073 27.208 654.633 27.208C658.217 27.208 661.545 27.08 664.617 26.824C667.774 26.4827 670.676 26.0133 673.321 25.416V37.32C674.345 35.016 675.71 32.9253 677.417 31.048C679.124 29.1707 681.086 27.72 683.305 26.696C685.524 25.5867 687.998 25.032 690.729 25.032Z" fill="white"/>
<path d="M737.721 25.032C743.95 25.032 749.412 26.184 754.105 28.488C758.798 30.792 762.468 34.504 765.113 39.624C767.758 44.744 769.081 51.528 769.081 59.976C769.081 68.424 767.758 75.208 765.113 80.328C762.468 85.3627 758.798 89.032 754.105 91.336C749.412 93.64 743.95 94.792 737.721 94.792C731.662 94.792 726.244 93.64 721.465 91.336C716.772 89.032 713.06 85.3627 710.329 80.328C707.684 75.208 706.361 68.424 706.361 59.976C706.361 51.528 707.684 44.744 710.329 39.624C713.06 34.504 716.772 30.792 721.465 28.488C726.244 26.184 731.662 25.032 737.721 25.032ZM737.721 27.592C734.308 27.592 731.449 30.152 729.145 35.272C726.841 40.3067 725.689 48.5413 725.689 59.976C725.689 71.4107 726.841 79.6453 729.145 84.68C731.449 89.7147 734.308 92.232 737.721 92.232C741.22 92.232 744.078 89.7147 746.297 84.68C748.601 79.6453 749.753 71.4107 749.753 59.976C749.753 48.5413 748.601 40.3067 746.297 35.272C744.078 30.152 741.22 27.592 737.721 27.592Z" fill="white"/>
<path d="M4.352 114.376C6.48533 114.461 9.344 114.547 12.928 114.632C16.5973 114.717 20.224 114.76 23.808 114.76C27.904 114.76 31.872 114.717 35.712 114.632C39.552 114.547 42.2827 114.504 43.904 114.504C51.84 114.504 58.4107 115.4 63.616 117.192C68.9067 118.899 72.832 121.416 75.392 124.744C78.0373 128.072 79.36 132.083 79.36 136.776C79.36 139.677 78.7627 142.621 77.568 145.608C76.3733 148.509 74.3253 151.24 71.424 153.8C68.608 156.275 64.7253 158.28 59.776 159.816C54.8267 161.267 48.5973 161.992 41.088 161.992H28.8V159.432H39.808C44.8427 159.432 48.64 158.493 51.2 156.616C53.8453 154.653 55.6373 152.093 56.576 148.936C57.6 145.693 58.112 142.109 58.112 138.184C58.112 131.443 56.9173 126.237 54.528 122.568C52.1387 118.813 48.0427 116.936 42.24 116.936C38.912 116.936 36.736 117.661 35.712 119.112C34.7733 120.563 34.304 123.507 34.304 127.944V191.432C34.304 194.504 34.5173 196.808 34.944 198.344C35.456 199.88 36.3947 200.904 37.76 201.416C39.1253 201.928 41.1733 202.269 43.904 202.44V205C41.6 204.829 38.6987 204.744 35.2 204.744C31.7013 204.659 28.16 204.616 24.576 204.616C20.48 204.616 16.5973 204.659 12.928 204.744C9.344 204.744 6.48533 204.829 4.352 205V202.44C7.08267 202.269 9.13067 201.928 10.496 201.416C11.8613 200.904 12.7573 199.88 13.184 198.344C13.696 196.808 13.952 194.504 13.952 191.432V127.944C13.952 124.787 13.696 122.483 13.184 121.032C12.7573 119.496 11.8187 118.472 10.368 117.96C9.00267 117.363 6.99733 117.021 4.352 116.936V114.376ZM28.544 159.816C32.2133 159.901 35.3707 160.072 38.016 160.328C40.7467 160.584 43.136 160.84 45.184 161.096C47.232 161.267 49.0667 161.395 50.688 161.48C58.4533 162.163 64.1707 163.827 67.84 166.472C71.5947 169.117 74.0267 173.085 75.136 178.376L78.08 191.56C78.848 194.973 79.6587 197.363 80.512 198.728C81.3653 200.093 82.6027 200.776 84.224 200.776C85.3333 200.691 86.2293 200.435 86.912 200.008C87.68 199.496 88.4907 198.771 89.344 197.832L91.136 199.368C88.832 202.013 86.3573 203.891 83.712 205C81.0667 206.195 77.8667 206.792 74.112 206.792C69.504 206.792 65.7067 205.811 62.72 203.848C59.7333 201.885 57.7707 198.259 56.832 192.968L54.528 180.168C53.9307 176.584 53.2053 173.469 52.352 170.824C51.4987 168.093 50.304 165.96 48.768 164.424C47.3173 162.803 45.2693 161.992 42.624 161.992H28.8L28.544 159.816Z" fill="white"/>
<path d="M124.721 137.032C132.23 137.032 138.118 139.251 142.385 143.688C146.652 148.125 148.785 155.379 148.785 165.448H106.673L106.417 163.016H132.657C132.742 158.835 132.486 154.995 131.889 151.496C131.292 147.912 130.353 145.053 129.073 142.92C127.793 140.787 126.086 139.72 123.953 139.72C120.966 139.72 118.406 141.597 116.273 145.352C114.225 149.107 112.988 155.336 112.561 164.04L112.945 164.808C112.86 165.832 112.774 166.899 112.689 168.008C112.689 169.117 112.689 170.269 112.689 171.464C112.689 177.352 113.5 182.131 115.121 185.8C116.828 189.469 118.961 192.157 121.521 193.864C124.081 195.485 126.684 196.296 129.329 196.296C131.121 196.296 132.956 196.04 134.833 195.528C136.796 194.931 138.758 193.907 140.721 192.456C142.684 190.92 144.518 188.787 146.225 186.056L148.529 186.824C147.505 190.067 145.884 193.224 143.665 196.296C141.446 199.368 138.63 201.885 135.217 203.848C131.804 205.811 127.708 206.792 122.929 206.792C117.126 206.792 112.006 205.555 107.569 203.08C103.132 200.605 99.633 196.851 97.073 191.816C94.5983 186.781 93.361 180.381 93.361 172.616C93.361 164.68 94.6837 158.067 97.329 152.776C100.06 147.485 103.772 143.56 108.465 141C113.244 138.355 118.662 137.032 124.721 137.032Z" fill="white"/>
<path d="M181.029 229.064C175.738 229.064 171.002 228.595 166.821 227.656C162.725 226.803 159.482 225.437 157.093 223.56C154.789 221.768 153.637 219.549 153.637 216.904C153.637 214.259 154.832 211.869 157.221 209.736C159.61 207.688 163.152 206.067 167.845 204.872L168.997 206.92C167.376 208.2 166.181 209.565 165.413 211.016C164.73 212.552 164.389 214.131 164.389 215.752C164.389 219.336 166.01 222.067 169.253 223.944C172.581 225.907 177.061 226.888 182.693 226.888C186.533 226.888 189.946 226.376 192.933 225.352C196.005 224.328 198.394 222.792 200.101 220.744C201.893 218.696 202.789 216.179 202.789 213.192C202.789 210.632 201.85 208.456 199.973 206.664C198.096 204.957 194.341 204.104 188.709 204.104H180.773C177.274 204.104 174.202 203.72 171.557 202.952C168.997 202.184 166.992 200.989 165.541 199.368C164.09 197.661 163.365 195.528 163.365 192.968C163.365 189.384 164.773 186.227 167.589 183.496C170.405 180.765 174.586 178.205 180.133 175.816L181.413 176.84C179.792 177.864 178.256 178.973 176.805 180.168C175.44 181.277 174.757 182.728 174.757 184.52C174.757 187.251 176.464 188.616 179.877 188.616H193.829C198.522 188.616 202.704 189.171 206.373 190.28C210.128 191.389 213.072 193.224 215.205 195.784C217.424 198.259 218.533 201.501 218.533 205.512C218.533 209.693 217.168 213.576 214.437 217.16C211.792 220.744 207.696 223.603 202.149 225.736C196.602 227.955 189.562 229.064 181.029 229.064ZM182.309 177.736C177.445 177.736 173.093 177.011 169.253 175.56C165.413 174.109 162.384 171.891 160.165 168.904C157.946 165.917 156.837 162.077 156.837 157.384C156.837 152.691 157.946 148.851 160.165 145.864C162.384 142.792 165.413 140.573 169.253 139.208C173.093 137.757 177.445 137.032 182.309 137.032C187.173 137.032 191.525 137.757 195.365 139.208C199.205 140.573 202.234 142.792 204.453 145.864C206.672 148.851 207.781 152.691 207.781 157.384C207.781 162.077 206.672 165.917 204.453 168.904C202.234 171.891 199.205 174.109 195.365 175.56C191.525 177.011 187.173 177.736 182.309 177.736ZM182.309 175.432C184.613 175.432 186.405 174.152 187.685 171.592C188.965 168.947 189.605 164.211 189.605 157.384C189.605 150.557 188.965 145.864 187.685 143.304C186.405 140.659 184.613 139.336 182.309 139.336C180.09 139.336 178.298 140.659 176.933 143.304C175.653 145.864 175.013 150.557 175.013 157.384C175.013 164.211 175.653 168.947 176.933 171.592C178.298 174.152 180.09 175.432 182.309 175.432ZM202.277 148.04L199.717 147.144C200.997 143.816 203.045 141.043 205.861 138.824C208.762 136.605 211.877 135.496 215.205 135.496C217.936 135.496 219.984 136.264 221.349 137.8C222.8 139.251 223.525 141.171 223.525 143.56C223.525 146.12 222.842 148.04 221.477 149.32C220.112 150.515 218.576 151.112 216.869 151.112C215.418 151.112 214.053 150.6 212.773 149.576C211.578 148.552 210.896 147.016 210.725 144.968C210.554 142.835 211.28 140.104 212.901 136.776L213.797 137.544C210.554 138.739 208.122 140.147 206.501 141.768C204.88 143.304 203.472 145.395 202.277 148.04Z" fill="white"/>
<path d="M243.587 105.8C247.171 105.8 249.987 106.696 252.035 108.488C254.168 110.195 255.235 112.584 255.235 115.656C255.235 118.728 254.168 121.16 252.035 122.952C249.987 124.659 247.171 125.512 243.587 125.512C240.003 125.512 237.144 124.659 235.011 122.952C232.963 121.16 231.939 118.728 231.939 115.656C231.939 112.584 232.963 110.195 235.011 108.488C237.144 106.696 240.003 105.8 243.587 105.8ZM253.571 137.416V193.096C253.571 196.68 254.168 199.112 255.363 200.392C256.643 201.672 258.776 202.312 261.763 202.312V205C260.227 204.915 257.838 204.829 254.595 204.744C251.352 204.573 248.067 204.488 244.739 204.488C241.411 204.488 238.04 204.573 234.627 204.744C231.214 204.829 228.654 204.915 226.947 205V202.312C229.934 202.312 232.024 201.672 233.219 200.392C234.499 199.112 235.139 196.68 235.139 193.096V152.776C235.139 148.936 234.542 146.12 233.347 144.328C232.238 142.451 230.104 141.512 226.947 141.512V138.824C229.678 139.08 232.323 139.208 234.883 139.208C238.467 139.208 241.795 139.08 244.867 138.824C248.024 138.483 250.926 138.013 253.571 137.416Z" fill="white"/>
<path d="M300.346 137.032C306.575 137.032 312.037 138.184 316.73 140.488C321.423 142.792 325.093 146.504 327.738 151.624C330.383 156.744 331.706 163.528 331.706 171.976C331.706 180.424 330.383 187.208 327.738 192.328C325.093 197.363 321.423 201.032 316.73 203.336C312.037 205.64 306.575 206.792 300.346 206.792C294.287 206.792 288.869 205.64 284.09 203.336C279.397 201.032 275.685 197.363 272.954 192.328C270.309 187.208 268.986 180.424 268.986 171.976C268.986 163.528 270.309 156.744 272.954 151.624C275.685 146.504 279.397 142.792 284.09 140.488C288.869 138.184 294.287 137.032 300.346 137.032ZM300.346 139.592C296.933 139.592 294.074 142.152 291.77 147.272C289.466 152.307 288.314 160.541 288.314 171.976C288.314 183.411 289.466 191.645 291.77 196.68C294.074 201.715 296.933 204.232 300.346 204.232C303.845 204.232 306.703 201.715 308.922 196.68C311.226 191.645 312.378 183.411 312.378 171.976C312.378 160.541 311.226 152.307 308.922 147.272C306.703 142.152 303.845 139.592 300.346 139.592Z" fill="white"/>
<path d="M387.313 137.032C390.897 137.032 393.798 137.501 396.017 138.44C398.321 139.293 400.113 140.488 401.393 142.024C402.758 143.645 403.74 145.736 404.337 148.296C405.02 150.856 405.361 154.312 405.361 158.664V193.096C405.361 196.68 405.958 199.112 407.153 200.392C408.433 201.672 410.566 202.312 413.553 202.312V205C411.932 204.915 409.5 204.829 406.257 204.744C403.014 204.573 399.814 204.488 396.657 204.488C393.414 204.488 390.214 204.573 387.057 204.744C383.985 204.829 381.638 204.915 380.017 205V202.312C382.577 202.312 384.369 201.672 385.393 200.392C386.417 199.112 386.929 196.68 386.929 193.096V153.288C386.929 151.155 386.716 149.32 386.289 147.784C385.862 146.163 385.094 144.925 383.985 144.072C382.876 143.133 381.212 142.664 378.993 142.664C376.689 142.664 374.556 143.304 372.593 144.584C370.716 145.864 369.18 147.656 367.985 149.96C366.876 152.179 366.321 154.696 366.321 157.512V193.096C366.321 196.68 366.833 199.112 367.857 200.392C368.966 201.672 370.758 202.312 373.233 202.312V205C371.697 204.915 369.436 204.829 366.449 204.744C363.548 204.573 360.518 204.488 357.361 204.488C354.118 204.488 350.79 204.573 347.377 204.744C343.964 204.829 341.404 204.915 339.697 205V202.312C342.684 202.312 344.774 201.672 345.969 200.392C347.249 199.112 347.889 196.68 347.889 193.096V152.776C347.889 148.936 347.292 146.12 346.097 144.328C344.988 142.451 342.854 141.512 339.697 141.512V138.824C342.428 139.08 345.073 139.208 347.633 139.208C351.217 139.208 354.545 139.08 357.617 138.824C360.774 138.483 363.676 138.013 366.321 137.416V148.936C368.454 144.584 371.356 141.512 375.025 139.72C378.694 137.928 382.79 137.032 387.313 137.032Z" fill="white"/>
<path d="M435.986 205.896C432.146 205.896 428.946 205.171 426.386 203.72C423.826 202.269 421.949 200.349 420.754 197.96C419.559 195.485 418.962 192.797 418.962 189.896C418.962 186.227 419.773 183.24 421.394 180.936C423.101 178.632 425.277 176.755 427.922 175.304C430.567 173.853 433.341 172.659 436.242 171.72C439.229 170.781 442.045 169.885 444.69 169.032C447.421 168.093 449.597 167.027 451.218 165.832C452.925 164.552 453.778 162.931 453.778 160.968V150.984C453.778 148.765 453.394 146.803 452.626 145.096C451.943 143.304 450.834 141.939 449.298 141C447.847 140.061 445.927 139.592 443.538 139.592C441.831 139.592 440.125 139.848 438.418 140.36C436.711 140.787 435.303 141.555 434.194 142.664C436.583 143.517 438.418 144.84 439.698 146.632C441.063 148.339 441.746 150.301 441.746 152.52C441.746 155.421 440.722 157.725 438.674 159.432C436.711 161.139 434.365 161.992 431.634 161.992C428.562 161.992 426.215 161.053 424.594 159.176C423.058 157.213 422.29 154.867 422.29 152.136C422.29 149.661 422.887 147.613 424.082 145.992C425.362 144.371 427.111 142.835 429.33 141.384C431.719 140.019 434.578 138.952 437.906 138.184C441.319 137.416 444.989 137.032 448.914 137.032C452.839 137.032 456.381 137.459 459.538 138.312C462.695 139.08 465.341 140.531 467.474 142.664C469.437 144.627 470.717 147.059 471.314 149.96C471.911 152.776 472.21 156.36 472.21 160.712V195.528C472.21 197.661 472.423 199.155 472.85 200.008C473.277 200.776 474.002 201.16 475.026 201.16C475.794 201.16 476.519 200.947 477.202 200.52C477.97 200.093 478.781 199.581 479.634 198.984L480.914 201.16C479.122 202.696 477.031 203.891 474.642 204.744C472.338 205.512 469.735 205.896 466.834 205.896C463.677 205.896 461.159 205.469 459.282 204.616C457.405 203.677 456.039 202.44 455.186 200.904C454.418 199.368 454.034 197.576 454.034 195.528C451.986 198.771 449.511 201.331 446.61 203.208C443.709 205 440.167 205.896 435.986 205.896ZM445.074 197.704C446.781 197.704 448.317 197.32 449.682 196.552C451.133 195.699 452.498 194.333 453.778 192.456V166.216C453.01 167.496 451.943 168.648 450.578 169.672C449.213 170.696 447.762 171.763 446.226 172.872C444.69 173.896 443.197 175.048 441.746 176.328C440.381 177.608 439.271 179.187 438.418 181.064C437.565 182.941 437.138 185.203 437.138 187.848C437.138 191.176 437.863 193.651 439.314 195.272C440.765 196.893 442.685 197.704 445.074 197.704Z" fill="white"/>
<path d="M510.684 104.776V193.096C510.684 196.68 511.281 199.112 512.476 200.392C513.756 201.672 515.889 202.312 518.876 202.312V205C517.255 204.915 514.823 204.829 511.58 204.744C508.337 204.573 505.052 204.488 501.724 204.488C498.396 204.488 495.025 204.573 491.612 204.744C488.284 204.829 485.767 204.915 484.06 205V202.312C487.047 202.312 489.137 201.672 490.332 200.392C491.612 199.112 492.252 196.68 492.252 193.096V120.136C492.252 116.296 491.655 113.48 490.46 111.688C489.351 109.811 487.217 108.872 484.06 108.872V106.184C486.791 106.44 489.436 106.568 491.996 106.568C495.495 106.568 498.823 106.44 501.98 106.184C505.137 105.843 508.039 105.373 510.684 104.776Z" fill="white"/>
<path d="M88.4871 0.157364C92.6077 0.157364 96.2063 0.899063 99.283 2.38246C102.415 3.81092 104.832 6.17336 106.535 9.4698C108.293 12.7662 109.172 17.1615 109.172 22.6556C109.172 28.1496 108.293 32.5449 106.535 35.8413C104.832 39.1377 102.415 41.5277 99.283 43.0111C96.2063 44.4395 92.6077 45.1537 88.4871 45.1537C84.4215 45.1537 80.8229 44.4395 77.6913 43.0111C74.6146 41.5277 72.1972 39.1377 70.4391 35.8413C68.681 32.5449 67.802 28.1496 67.802 22.6556C67.802 17.1615 68.681 12.7662 70.4391 9.4698C72.1972 6.17336 74.6146 3.81092 77.6913 2.38246C80.8229 0.899063 84.4215 0.157364 88.4871 0.157364ZM88.4871 1.80558C86.5642 1.80558 84.9435 3.4538 83.6249 6.75024C82.3612 9.99174 81.7294 15.2935 81.7294 22.6556C81.7294 30.0176 82.3612 35.3468 83.6249 38.6433C84.9435 41.8848 86.5642 43.5055 88.4871 43.5055C90.465 43.5055 92.0857 41.8848 93.3494 38.6433C94.613 35.3468 95.2448 30.0176 95.2448 22.6556C95.2448 15.2935 94.613 9.99174 93.3494 6.75024C92.0857 3.4538 90.465 1.80558 88.4871 1.80558Z" fill="white"/>
<path d="M51.8648 268.851C51.6312 271.07 51.456 273.231 51.3392 275.334C51.2808 277.378 51.2516 278.955 51.2516 280.065C51.2516 281.466 51.2808 282.78 51.3392 284.007C51.3976 285.234 51.456 286.314 51.5144 287.249H49.4994C49.0905 283.16 48.5357 279.948 47.8348 277.611C47.1339 275.217 45.9074 273.494 44.1552 272.443C42.403 271.391 39.6871 270.866 36.0075 270.866H31.2766V320.715C31.2766 323.052 31.481 324.804 31.8899 325.972C32.3571 327.14 33.2332 327.929 34.5182 328.337C35.8031 328.746 37.6721 329.009 40.1252 329.126V330.878C38.6066 330.761 36.6792 330.703 34.3429 330.703C32.0067 330.644 29.6412 330.615 27.2466 330.615C24.6183 330.615 22.136 330.644 19.7998 330.703C17.5219 330.703 15.6821 330.761 14.2804 330.878V329.126C16.7334 329.009 18.6024 328.746 19.8874 328.337C21.1723 327.929 22.0192 327.14 22.428 325.972C22.8953 324.804 23.1289 323.052 23.1289 320.715V270.866H18.398C14.7768 270.866 12.0609 271.391 10.2503 272.443C8.49813 273.494 7.27159 275.217 6.57071 277.611C5.86984 279.948 5.31498 283.16 4.90613 287.249H2.89111C3.00793 286.314 3.06633 285.234 3.06633 284.007C3.12474 282.78 3.15394 281.466 3.15394 280.065C3.15394 278.955 3.09554 277.378 2.97872 275.334C2.92032 273.231 2.7743 271.07 2.54068 268.851C4.99374 268.909 7.65123 268.967 10.5131 269.026C13.4335 269.084 16.3538 269.113 19.2741 269.113C22.1944 269.113 24.8519 269.113 27.2466 269.113C29.6412 269.113 32.2695 269.113 35.1314 269.113C38.0517 269.113 40.9721 269.084 43.8924 269.026C46.8127 268.967 49.4702 268.909 51.8648 268.851Z" fill="white"/>
<path d="M87.0647 284.795V321.416C87.0647 324.045 87.532 326.001 88.4665 327.286C89.4594 328.513 91.2116 329.126 93.723 329.126V330.966C91.9124 330.79 90.1018 330.703 88.2912 330.703C86.5975 330.703 84.9621 330.79 83.3851 330.966C81.8665 331.141 80.4648 331.462 79.1798 331.929V321.591C77.7197 325.388 75.6463 328.104 72.9596 329.739C70.3313 331.316 67.6154 332.105 64.8119 332.105C62.7677 332.105 60.9863 331.813 59.4677 331.229C57.9491 330.644 56.6934 329.827 55.7005 328.775C54.5908 327.607 53.8315 326.089 53.4226 324.22C53.0138 322.351 52.8094 320.044 52.8094 317.299V295.309C52.8094 292.68 52.3421 290.753 51.4076 289.526C50.4731 288.241 48.7209 287.599 46.1511 287.599V285.759C48.0201 285.934 49.8307 286.022 51.5828 286.022C53.2766 286.022 54.8828 285.934 56.4014 285.759C57.9783 285.526 59.4093 285.204 60.6942 284.795V319.226C60.6942 321.037 60.8111 322.701 61.0447 324.22C61.2783 325.738 61.8624 326.965 62.7969 327.899C63.7314 328.834 65.2499 329.301 67.3526 329.301C69.6304 329.301 71.6454 328.6 73.3976 327.198C75.2082 325.797 76.61 323.899 77.6029 321.504C78.6542 319.109 79.1798 316.422 79.1798 313.444V295.309C79.1798 292.68 78.7126 290.753 77.7781 289.526C76.8436 288.241 75.0914 287.599 72.5215 287.599V285.759C74.3905 285.934 76.2011 286.022 77.9533 286.022C79.6471 286.022 81.2533 285.934 82.7718 285.759C84.3488 285.526 85.7798 285.204 87.0647 284.795Z" fill="white"/>
<path d="M121.938 284.533C123.515 284.533 124.888 284.854 126.056 285.496C127.282 286.139 128.217 286.986 128.859 288.037C129.56 289.03 129.911 290.169 129.911 291.454C129.911 292.914 129.443 294.199 128.509 295.309C127.633 296.418 126.435 296.973 124.917 296.973C123.69 296.973 122.61 296.594 121.675 295.834C120.741 295.017 120.274 293.878 120.274 292.417C120.274 291.308 120.566 290.373 121.15 289.614C121.792 288.796 122.493 288.154 123.252 287.687C122.843 287.103 122.23 286.81 121.412 286.81C119.602 286.81 117.937 287.365 116.419 288.475C114.9 289.526 113.615 290.899 112.564 292.593C111.513 294.286 110.695 296.097 110.111 298.024C109.527 299.893 109.235 301.646 109.235 303.281V321.854C109.235 324.716 110.052 326.644 111.688 327.637C113.382 328.571 115.659 329.038 118.521 329.038V330.878C117.178 330.82 115.28 330.761 112.827 330.703C110.374 330.586 107.775 330.528 105.029 330.528C103.044 330.528 101.058 330.586 99.072 330.703C97.1446 330.761 95.6844 330.82 94.6915 330.878V329.038C97.0862 329.038 98.78 328.6 99.7729 327.724C100.824 326.848 101.35 325.183 101.35 322.73V295.309C101.35 292.68 100.883 290.753 99.9481 289.526C99.0136 288.241 97.2614 287.599 94.6915 287.599V285.759C96.5605 285.934 98.3711 286.022 100.123 286.022C101.817 286.022 103.423 285.934 104.942 285.759C106.519 285.526 107.95 285.204 109.235 284.795V295.747C109.877 294.053 110.782 292.359 111.951 290.665C113.177 288.913 114.637 287.453 116.331 286.285C118.025 285.117 119.894 284.533 121.938 284.533Z" fill="white"/>
<path d="M140.188 263.857C141.707 263.857 143.021 264.412 144.131 265.521C145.24 266.631 145.795 267.945 145.795 269.464C145.795 270.982 145.24 272.297 144.131 273.406C143.021 274.516 141.707 275.071 140.188 275.071C138.67 275.071 137.356 274.516 136.246 273.406C135.136 272.297 134.581 270.982 134.581 269.464C134.581 267.945 135.136 266.631 136.246 265.521C137.356 264.412 138.67 263.857 140.188 263.857ZM144.744 284.795V322.73C144.744 325.183 145.24 326.848 146.233 327.724C147.285 328.6 149.008 329.038 151.402 329.038V330.878C150.409 330.82 148.891 330.761 146.847 330.703C144.861 330.586 142.846 330.528 140.802 330.528C138.816 330.528 136.801 330.586 134.756 330.703C132.712 330.761 131.194 330.82 130.201 330.878V329.038C132.595 329.038 134.289 328.6 135.282 327.724C136.333 326.848 136.859 325.183 136.859 322.73V295.309C136.859 292.68 136.392 290.753 135.457 289.526C134.523 288.241 132.771 287.599 130.201 287.599V285.759C132.07 285.934 133.88 286.022 135.633 286.022C137.326 286.022 138.933 285.934 140.451 285.759C142.028 285.526 143.459 285.204 144.744 284.795Z" fill="white"/>
<path d="M168.045 284.533C170.382 284.533 172.367 284.912 174.003 285.672C175.638 286.431 176.835 287.132 177.595 287.774C179.522 289.351 180.69 288.3 181.099 284.62H183.114C182.997 286.256 182.91 288.212 182.851 290.49C182.793 292.71 182.764 295.717 182.764 299.514H180.749C180.398 297.353 179.785 295.25 178.909 293.206C178.091 291.162 176.865 289.497 175.229 288.212C173.594 286.869 171.462 286.197 168.834 286.197C166.79 286.197 165.067 286.781 163.665 287.949C162.322 289.059 161.65 290.724 161.65 292.943C161.65 294.695 162.176 296.214 163.227 297.499C164.278 298.725 165.651 299.893 167.344 301.003C169.038 302.055 170.878 303.223 172.864 304.508C175.083 305.909 177.098 307.34 178.909 308.8C180.72 310.261 182.15 311.867 183.202 313.619C184.312 315.371 184.866 317.445 184.866 319.839C184.866 322.526 184.165 324.775 182.764 326.585C181.362 328.396 179.522 329.768 177.244 330.703C175.025 331.637 172.572 332.105 169.885 332.105C168.6 332.105 167.374 331.988 166.206 331.754C165.096 331.579 164.015 331.287 162.964 330.878C162.38 330.586 161.767 330.236 161.124 329.827C160.54 329.418 159.956 328.98 159.372 328.513C158.788 328.045 158.262 328.075 157.795 328.6C157.328 329.067 156.977 330.031 156.744 331.491H154.729C154.845 329.622 154.933 327.344 154.992 324.658C155.05 321.971 155.079 318.408 155.079 313.969H157.094C157.503 317.24 158.087 320.102 158.846 322.555C159.606 325.008 160.803 326.936 162.438 328.337C164.074 329.681 166.352 330.352 169.272 330.352C170.44 330.352 171.608 330.09 172.776 329.564C174.003 329.038 175.025 328.162 175.843 326.936C176.66 325.709 177.069 324.074 177.069 322.03C177.069 319.46 176.135 317.357 174.266 315.722C172.397 314.086 170.031 312.363 167.169 310.553C165.067 309.209 163.081 307.866 161.212 306.523C159.401 305.179 157.912 303.661 156.744 301.967C155.634 300.273 155.079 298.229 155.079 295.834C155.079 293.206 155.663 291.074 156.831 289.439C158.058 287.745 159.664 286.518 161.65 285.759C163.636 284.941 165.767 284.533 168.045 284.533Z" fill="white"/>
<path d="M216.955 284.533C218.999 284.533 220.78 284.825 222.299 285.409C223.817 285.993 225.073 286.81 226.066 287.862C227.176 289.03 227.935 290.548 228.344 292.417C228.753 294.286 228.957 296.594 228.957 299.339V322.73C228.957 325.183 229.454 326.848 230.447 327.724C231.498 328.6 233.221 329.038 235.616 329.038V330.878C234.623 330.82 233.104 330.761 231.06 330.703C229.016 330.586 227.03 330.528 225.102 330.528C223.175 330.528 221.277 330.586 219.408 330.703C217.597 330.761 216.225 330.82 215.29 330.878V329.038C217.393 329.038 218.882 328.6 219.758 327.724C220.634 326.848 221.072 325.183 221.072 322.73V297.411C221.072 295.601 220.956 293.936 220.722 292.417C220.488 290.899 219.904 289.672 218.97 288.738C218.035 287.803 216.517 287.336 214.414 287.336C212.136 287.336 210.092 288.037 208.281 289.439C206.529 290.841 205.127 292.768 204.076 295.221C203.083 297.616 202.587 300.302 202.587 303.281V322.73C202.587 325.183 203.025 326.848 203.901 327.724C204.777 328.6 206.266 329.038 208.369 329.038V330.878C207.434 330.82 206.033 330.761 204.164 330.703C202.353 330.586 200.484 330.528 198.557 330.528C196.629 330.528 194.643 330.586 192.599 330.703C190.555 330.761 189.036 330.82 188.044 330.878V329.038C190.438 329.038 192.132 328.6 193.125 327.724C194.176 326.848 194.702 325.183 194.702 322.73V295.309C194.702 292.68 194.235 290.753 193.3 289.526C192.366 288.241 190.613 287.599 188.044 287.599V285.759C189.913 285.934 191.723 286.022 193.475 286.022C195.169 286.022 196.775 285.934 198.294 285.759C199.871 285.526 201.302 285.204 202.587 284.795V295.133C204.105 291.337 206.179 288.621 208.807 286.986C211.435 285.35 214.151 284.533 216.955 284.533ZM243.325 284.533C245.369 284.533 247.151 284.825 248.669 285.409C250.188 285.993 251.444 286.81 252.437 287.862C253.546 289.03 254.306 290.548 254.714 292.417C255.123 294.286 255.328 296.594 255.328 299.339V322.73C255.328 325.183 255.824 326.848 256.817 327.724C257.868 328.6 259.591 329.038 261.986 329.038V330.878C260.993 330.82 259.475 330.761 257.43 330.703C255.386 330.586 253.4 330.528 251.473 330.528C249.545 330.528 247.647 330.586 245.778 330.703C243.968 330.761 242.595 330.82 241.661 330.878V329.038C243.763 329.038 245.253 328.6 246.129 327.724C247.005 326.848 247.443 325.183 247.443 322.73V297.411C247.443 295.601 247.326 293.936 247.092 292.417C246.859 290.899 246.275 289.672 245.34 288.738C244.406 287.803 242.887 287.336 240.785 287.336C238.507 287.336 236.462 288.037 234.652 289.439C232.9 290.841 231.498 292.739 230.447 295.133C229.454 297.528 228.957 300.215 228.957 303.193L228.694 295.046C230.271 291.016 232.403 288.271 235.09 286.81C237.777 285.292 240.522 284.533 243.325 284.533Z" fill="white"/>
<path d="M283.774 284.533C287.512 284.533 290.87 285.35 293.849 286.986C296.828 288.621 299.193 291.191 300.946 294.695C302.756 298.2 303.661 302.755 303.661 308.362C303.661 313.969 302.756 318.525 300.946 322.03C299.193 325.476 296.828 328.016 293.849 329.652C290.87 331.287 287.512 332.105 283.774 332.105C280.095 332.105 276.736 331.287 273.699 329.652C270.72 328.016 268.326 325.476 266.515 322.03C264.763 318.525 263.887 313.969 263.887 308.362C263.887 302.755 264.763 298.2 266.515 294.695C268.326 291.191 270.72 288.621 273.699 286.986C276.736 285.35 280.095 284.533 283.774 284.533ZM283.774 286.285C280.445 286.285 277.7 288.008 275.539 291.454C273.436 294.9 272.385 300.536 272.385 308.362C272.385 316.189 273.436 321.825 275.539 325.271C277.7 328.659 280.445 330.352 283.774 330.352C287.103 330.352 289.819 328.659 291.922 325.271C294.083 321.825 295.163 316.189 295.163 308.362C295.163 300.536 294.083 294.9 291.922 291.454C289.819 288.008 287.103 286.285 283.774 286.285Z" fill="white"/>
<path d="M364.977 262.192V321.329C364.977 323.957 365.444 325.914 366.379 327.198C367.372 328.425 369.124 329.038 371.636 329.038V330.878C369.825 330.703 368.014 330.615 366.204 330.615C364.51 330.615 362.875 330.703 361.298 330.878C359.779 331.053 358.377 331.375 357.092 331.842V272.705C357.092 270.077 356.625 268.15 355.691 266.923C354.756 265.638 353.004 264.996 350.434 264.996V263.156C352.303 263.331 354.114 263.419 355.866 263.419C357.56 263.419 359.166 263.331 360.684 263.156C362.261 262.922 363.692 262.601 364.977 262.192ZM346.579 284.533C349.149 284.533 351.544 285.146 353.763 286.372C356.041 287.599 357.56 289.702 358.319 292.68L357.18 293.556C356.362 291.103 355.077 289.322 353.325 288.212C351.631 287.103 349.616 286.548 347.28 286.548C343.834 286.548 340.943 288.329 338.607 291.892C336.329 295.455 335.219 300.945 335.278 308.362C335.278 313.093 335.716 317.036 336.592 320.19C337.526 323.285 338.87 325.621 340.622 327.198C342.432 328.717 344.623 329.476 347.192 329.476C349.646 329.476 351.865 328.425 353.851 326.322C355.837 324.22 357.034 321.124 357.443 317.036L358.494 318.262C358.027 322.701 356.596 326.118 354.201 328.513C351.865 330.907 348.682 332.105 344.652 332.105C341.031 332.105 337.847 331.229 335.102 329.476C332.416 327.724 330.342 325.096 328.882 321.591C327.48 318.087 326.779 313.677 326.779 308.362C326.779 303.047 327.685 298.638 329.495 295.133C331.364 291.571 333.788 288.913 336.767 287.161C339.804 285.409 343.075 284.533 346.579 284.533Z" fill="white"/>
<path d="M393.806 284.533C398.945 284.533 402.946 286.11 405.808 289.264C408.728 292.359 410.188 297.207 410.188 303.807H379.262L379.175 302.142H401.778C401.895 299.28 401.661 296.652 401.077 294.257C400.493 291.804 399.559 289.848 398.274 288.387C397.047 286.927 395.441 286.197 393.455 286.197C390.768 286.197 388.374 287.541 386.271 290.227C384.227 292.914 383 297.178 382.591 303.018L382.854 303.369C382.737 304.245 382.65 305.208 382.591 306.26C382.533 307.311 382.504 308.362 382.504 309.414C382.504 313.385 383.146 316.802 384.431 319.664C385.716 322.526 387.381 324.716 389.425 326.235C391.528 327.695 393.689 328.425 395.908 328.425C397.66 328.425 399.325 328.162 400.902 327.637C402.479 327.052 403.939 326.118 405.282 324.833C406.626 323.548 407.794 321.825 408.787 319.664L410.539 320.365C409.896 322.292 408.845 324.161 407.385 325.972C405.925 327.783 404.085 329.272 401.866 330.44C399.646 331.55 397.076 332.105 394.156 332.105C389.951 332.105 386.329 331.141 383.292 329.213C380.314 327.286 378.007 324.629 376.371 321.241C374.794 317.795 374.006 313.853 374.006 309.414C374.006 304.274 374.823 299.864 376.459 296.185C378.094 292.447 380.401 289.585 383.38 287.599C386.359 285.555 389.834 284.533 393.806 284.533Z" fill="white"/>
<path d="M432.781 268.851C434.008 268.909 435.614 268.967 437.6 269.026C439.586 269.084 441.542 269.113 443.47 269.113C446.215 269.113 448.843 269.084 451.355 269.026C453.866 268.967 455.648 268.938 456.699 268.938C461.43 268.938 465.343 269.61 468.439 270.953C471.592 272.297 473.929 274.136 475.447 276.473C477.024 278.75 477.813 281.32 477.813 284.182C477.813 285.934 477.462 287.803 476.761 289.789C476.061 291.775 474.834 293.644 473.082 295.396C471.388 297.148 469.052 298.609 466.073 299.777C463.094 300.886 459.327 301.441 454.771 301.441H446.361V299.689H453.895C458.042 299.689 461.196 299.047 463.357 297.762C465.577 296.418 467.066 294.666 467.825 292.505C468.643 290.286 469.052 287.833 469.052 285.146C469.052 280.532 467.942 276.969 465.723 274.458C463.562 271.888 459.824 270.603 454.509 270.603C451.822 270.603 450.07 271.099 449.252 272.092C448.434 273.085 448.026 275.1 448.026 278.137V321.591C448.026 323.694 448.201 325.271 448.551 326.322C448.902 327.374 449.573 328.075 450.566 328.425C451.618 328.775 453.136 329.009 455.122 329.126V330.878C453.779 330.761 452.085 330.703 450.041 330.703C448.055 330.644 446.04 330.615 443.995 330.615C441.718 330.615 439.586 330.644 437.6 330.703C435.614 330.703 434.008 330.761 432.781 330.878V329.126C434.767 329.009 436.257 328.775 437.25 328.425C438.301 328.075 439.002 327.374 439.352 326.322C439.703 325.271 439.878 323.694 439.878 321.591V278.137C439.878 275.976 439.703 274.399 439.352 273.406C439.002 272.355 438.301 271.654 437.25 271.304C436.257 270.895 434.767 270.661 432.781 270.603V268.851ZM446.711 299.952C449.865 300.069 452.348 300.215 454.158 300.39C455.969 300.507 457.429 300.624 458.539 300.74C459.707 300.857 460.817 301.003 461.868 301.178C465.781 301.821 468.585 303.018 470.278 304.77C472.031 306.464 473.315 309.122 474.133 312.743L476.323 321.679C476.907 324.249 477.492 326.118 478.076 327.286C478.718 328.396 479.682 328.921 480.967 328.863C481.96 328.805 482.777 328.483 483.42 327.899C484.121 327.315 484.851 326.527 485.61 325.534L486.924 326.498C485.698 328.308 484.413 329.71 483.069 330.703C481.784 331.637 479.945 332.105 477.55 332.105C475.389 332.105 473.491 331.462 471.855 330.177C470.22 328.892 468.993 326.381 468.176 322.643L466.248 313.882C465.723 311.37 465.109 309.209 464.409 307.399C463.766 305.53 462.832 304.07 461.605 303.018C460.437 301.967 458.685 301.441 456.348 301.441H446.887L446.711 299.952Z" fill="white"/>
<path d="M506.412 284.533C510.15 284.533 513.508 285.35 516.487 286.986C519.466 288.621 521.831 291.191 523.583 294.695C525.394 298.2 526.299 302.755 526.299 308.362C526.299 313.969 525.394 318.525 523.583 322.03C521.831 325.476 519.466 328.016 516.487 329.652C513.508 331.287 510.15 332.105 506.412 332.105C502.732 332.105 499.374 331.287 496.337 329.652C493.358 328.016 490.963 325.476 489.153 322.03C487.401 318.525 486.524 313.969 486.524 308.362C486.524 302.755 487.401 298.2 489.153 294.695C490.963 291.191 493.358 288.621 496.337 286.986C499.374 285.35 502.732 284.533 506.412 284.533ZM506.412 286.285C503.083 286.285 500.338 288.008 498.177 291.454C496.074 294.9 495.023 300.536 495.023 308.362C495.023 316.189 496.074 321.825 498.177 325.271C500.338 328.659 503.083 330.352 506.412 330.352C509.741 330.352 512.457 328.659 514.56 325.271C516.721 321.825 517.801 316.189 517.801 308.362C517.801 300.536 516.721 294.9 514.56 291.454C512.457 288.008 509.741 286.285 506.412 286.285Z" fill="white"/>
<path d="M558.351 284.533C560.395 284.533 562.177 284.825 563.695 285.409C565.214 285.993 566.47 286.81 567.463 287.862C568.572 289.03 569.332 290.548 569.74 292.417C570.149 294.286 570.354 296.594 570.354 299.339V322.73C570.354 325.183 570.85 326.848 571.843 327.724C572.894 328.6 574.617 329.038 577.012 329.038V330.878C576.019 330.82 574.501 330.761 572.456 330.703C570.412 330.586 568.426 330.528 566.499 330.528C564.571 330.528 562.673 330.586 560.804 330.703C558.994 330.761 557.621 330.82 556.687 330.878V329.038C558.789 329.038 560.279 328.6 561.155 327.724C562.031 326.848 562.469 325.183 562.469 322.73V297.411C562.469 295.601 562.352 293.936 562.118 292.417C561.885 290.899 561.301 289.672 560.366 288.738C559.432 287.803 557.913 287.336 555.811 287.336C553.533 287.336 551.489 288.037 549.678 289.439C547.926 290.841 546.524 292.768 545.473 295.221C544.48 297.616 543.983 300.302 543.983 303.281V322.73C543.983 325.183 544.421 326.848 545.297 327.724C546.174 328.6 547.663 329.038 549.766 329.038V330.878C548.831 330.82 547.429 330.761 545.56 330.703C543.75 330.586 541.881 330.528 539.953 330.528C538.026 330.528 536.04 330.586 533.996 330.703C531.952 330.761 530.433 330.82 529.44 330.878V329.038C531.835 329.038 533.529 328.6 534.521 327.724C535.573 326.848 536.098 325.183 536.098 322.73V295.309C536.098 292.68 535.631 290.753 534.697 289.526C533.762 288.241 532.01 287.599 529.44 287.599V285.759C531.309 285.934 533.12 286.022 534.872 286.022C536.566 286.022 538.172 285.934 539.69 285.759C541.267 285.526 542.698 285.204 543.983 284.795V295.133C545.502 291.337 547.575 288.621 550.204 286.986C552.832 285.35 555.548 284.533 558.351 284.533ZM584.722 284.533C586.766 284.533 588.547 284.825 590.066 285.409C591.584 285.993 592.84 286.81 593.833 287.862C594.943 289.03 595.702 290.548 596.111 292.417C596.52 294.286 596.724 296.594 596.724 299.339V322.73C596.724 325.183 597.221 326.848 598.214 327.724C599.265 328.6 600.988 329.038 603.383 329.038V330.878C602.39 330.82 600.871 330.761 598.827 330.703C596.783 330.586 594.797 330.528 592.869 330.528C590.942 330.528 589.044 330.586 587.175 330.703C585.364 330.761 583.992 330.82 583.057 330.878V329.038C585.16 329.038 586.649 328.6 587.525 327.724C588.401 326.848 588.839 325.183 588.839 322.73V297.411C588.839 295.601 588.723 293.936 588.489 292.417C588.255 290.899 587.671 289.672 586.737 288.738C585.802 287.803 584.284 287.336 582.181 287.336C579.903 287.336 577.859 288.037 576.048 289.439C574.296 290.841 572.894 292.739 571.843 295.133C570.85 297.528 570.354 300.215 570.354 303.193L570.091 295.046C571.668 291.016 573.8 288.271 576.486 286.81C579.173 285.292 581.918 284.533 584.722 284.533Z" fill="white"/>
<path d="M616.147 331.491C613.752 331.491 611.679 331.053 609.927 330.177C608.174 329.243 606.831 327.958 605.897 326.322C605.02 324.687 604.582 322.789 604.582 320.628C604.582 318.058 605.166 315.955 606.335 314.32C607.561 312.684 609.109 311.37 610.978 310.377C612.847 309.385 614.804 308.567 616.848 307.924C618.95 307.224 620.936 306.581 622.805 305.997C624.674 305.354 626.193 304.624 627.361 303.807C628.587 302.989 629.201 301.909 629.201 300.565V295.133C629.201 292.68 628.821 290.811 628.062 289.526C627.361 288.241 626.397 287.395 625.171 286.986C623.944 286.518 622.572 286.285 621.053 286.285C619.593 286.285 618.016 286.489 616.322 286.898C614.687 287.307 613.373 288.154 612.38 289.439C613.489 289.672 614.453 290.256 615.271 291.191C616.089 292.125 616.497 293.323 616.497 294.783C616.497 296.243 616.03 297.411 615.096 298.287C614.161 299.105 612.964 299.514 611.504 299.514C609.81 299.514 608.554 298.988 607.736 297.937C606.977 296.827 606.597 295.601 606.597 294.257C606.597 292.739 606.977 291.512 607.736 290.578C608.496 289.643 609.459 288.767 610.628 287.949C611.971 287.015 613.694 286.226 615.796 285.584C617.957 284.883 620.381 284.533 623.068 284.533C625.463 284.533 627.507 284.825 629.201 285.409C630.894 285.934 632.296 286.723 633.406 287.774C634.925 289.176 635.917 290.899 636.385 292.943C636.852 294.929 637.086 297.324 637.086 300.127V324.483C637.086 325.943 637.29 326.994 637.699 327.637C638.166 328.279 638.867 328.6 639.801 328.6C640.444 328.6 641.057 328.454 641.641 328.162C642.225 327.87 642.926 327.403 643.744 326.76L644.708 328.25C643.481 329.184 642.313 329.973 641.203 330.615C640.093 331.199 638.604 331.491 636.735 331.491C635.041 331.491 633.64 331.199 632.53 330.615C631.42 330.031 630.573 329.184 629.989 328.075C629.464 326.906 629.201 325.446 629.201 323.694C627.624 326.322 625.726 328.279 623.506 329.564C621.345 330.849 618.892 331.491 616.147 331.491ZM619.301 327.987C621.228 327.987 623.01 327.432 624.645 326.322C626.339 325.213 627.857 323.548 629.201 321.329V304.157C628.5 305.15 627.478 305.997 626.134 306.698C624.791 307.34 623.331 308.012 621.754 308.713C620.177 309.355 618.658 310.144 617.198 311.078C615.796 311.954 614.628 313.123 613.694 314.583C612.759 316.043 612.292 317.941 612.292 320.277C612.292 322.614 612.905 324.483 614.132 325.884C615.417 327.286 617.14 327.987 619.301 327.987Z" fill="white"/>
<path d="M673.272 284.533C675.492 284.533 677.332 284.825 678.792 285.409C680.31 285.993 681.566 286.81 682.559 287.862C683.669 289.03 684.457 290.49 684.924 292.242C685.392 293.994 685.625 296.36 685.625 299.339V322.73C685.625 325.183 686.122 326.848 687.115 327.724C688.166 328.6 689.889 329.038 692.284 329.038V330.878C691.291 330.82 689.772 330.761 687.728 330.703C685.684 330.586 683.698 330.528 681.771 330.528C679.843 330.528 677.945 330.586 676.076 330.703C674.265 330.761 672.893 330.82 671.958 330.878V329.038C674.061 329.038 675.55 328.6 676.426 327.724C677.302 326.848 677.74 325.183 677.74 322.73V297.411C677.74 295.601 677.594 293.936 677.302 292.417C677.01 290.899 676.339 289.672 675.287 288.738C674.295 287.803 672.747 287.336 670.644 287.336C668.191 287.336 666.03 288.037 664.161 289.439C662.35 290.841 660.919 292.768 659.868 295.221C658.875 297.616 658.379 300.302 658.379 303.281V322.73C658.379 325.183 658.817 326.848 659.693 327.724C660.569 328.6 662.058 329.038 664.161 329.038V330.878C663.227 330.82 661.825 330.761 659.956 330.703C658.145 330.586 656.276 330.528 654.349 330.528C652.421 330.528 650.436 330.586 648.391 330.703C646.347 330.761 644.828 330.82 643.836 330.878V329.038C646.23 329.038 647.924 328.6 648.917 327.724C649.968 326.848 650.494 325.183 650.494 322.73V295.309C650.494 292.68 650.027 290.753 649.092 289.526C648.158 288.241 646.405 287.599 643.836 287.599V285.759C645.705 285.934 647.515 286.022 649.267 286.022C650.961 286.022 652.567 285.934 654.086 285.759C655.663 285.526 657.094 285.204 658.379 284.795V295.133C659.897 291.162 662 288.417 664.687 286.898C667.432 285.321 670.294 284.533 673.272 284.533Z" fill="white"/>
<path d="M714.508 284.533C716.377 284.533 718.188 284.766 719.94 285.234C721.692 285.701 723.269 286.402 724.671 287.336C726.014 288.212 727.037 289.234 727.737 290.402C728.438 291.512 728.789 292.739 728.789 294.082C728.789 295.659 728.351 296.886 727.475 297.762C726.599 298.579 725.489 298.988 724.146 298.988C722.861 298.988 721.722 298.609 720.729 297.849C719.794 297.09 719.327 296.009 719.327 294.608C719.327 293.264 719.677 292.184 720.378 291.366C721.138 290.548 722.014 290.023 723.007 289.789C722.422 288.738 721.371 287.862 719.853 287.161C718.392 286.46 716.815 286.11 715.122 286.11C713.662 286.11 712.201 286.46 710.741 287.161C709.281 287.862 707.938 289.03 706.711 290.665C705.485 292.242 704.492 294.433 703.732 297.236C702.973 299.981 702.594 303.427 702.594 307.574C702.594 312.714 703.178 316.802 704.346 319.839C705.514 322.876 707.032 325.067 708.901 326.41C710.829 327.695 712.931 328.337 715.209 328.337C716.728 328.337 718.276 328.045 719.853 327.461C721.43 326.877 722.919 325.943 724.321 324.658C725.722 323.314 726.92 321.533 727.913 319.314L729.577 319.927C728.993 321.796 728.03 323.694 726.686 325.622C725.343 327.491 723.591 329.038 721.43 330.265C719.269 331.491 716.611 332.105 713.457 332.105C709.836 332.105 706.565 331.17 703.645 329.301C700.725 327.432 698.388 324.775 696.636 321.329C694.942 317.824 694.095 313.677 694.095 308.888C694.095 304.099 694.942 299.894 696.636 296.272C698.388 292.593 700.812 289.731 703.908 287.687C707.003 285.584 710.537 284.533 714.508 284.533Z" fill="white"/>
<path d="M752.998 284.533C758.138 284.533 762.138 286.11 765 289.264C767.921 292.359 769.381 297.207 769.381 303.807H738.455L738.367 302.142H760.97C761.087 299.28 760.853 296.652 760.269 294.257C759.685 291.804 758.751 289.848 757.466 288.387C756.239 286.927 754.633 286.197 752.647 286.197C749.961 286.197 747.566 287.541 745.463 290.227C743.419 292.914 742.193 297.178 741.784 303.018L742.047 303.369C741.93 304.245 741.842 305.208 741.784 306.26C741.725 307.311 741.696 308.362 741.696 309.414C741.696 313.385 742.339 316.802 743.624 319.664C744.908 322.526 746.573 324.716 748.617 326.235C750.72 327.695 752.881 328.425 755.1 328.425C756.853 328.425 758.517 328.162 760.094 327.637C761.671 327.052 763.131 326.118 764.475 324.833C765.818 323.548 766.986 321.825 767.979 319.664L769.731 320.365C769.089 322.292 768.037 324.161 766.577 325.972C765.117 327.783 763.277 329.272 761.058 330.44C758.838 331.55 756.269 332.105 753.348 332.105C749.143 332.105 745.522 331.141 742.485 329.213C739.506 327.286 737.199 324.629 735.563 321.241C733.987 317.795 733.198 313.853 733.198 309.414C733.198 304.274 734.016 299.864 735.651 296.185C737.286 292.447 739.593 289.585 742.572 287.599C745.551 285.555 749.026 284.533 752.998 284.533Z" fill="white"/>
<path d="M0 444.245V439.715H88V444.245H0Z" fill="white"/>
<path d="M56.6271 400.245L60.8834 401.794L30.7856 484.487L26.5294 482.938L56.6271 400.245Z" fill="white"/>
<path d="M167.962 468.529C167.962 473.122 168.244 478.279 168.808 484C163.329 483.758 154.102 483.637 141.129 483.637C125.658 483.637 113.973 483.758 106.077 484V481.583C108.977 481.421 111.073 481.099 112.362 480.616C113.732 480.132 114.658 479.205 115.142 477.836C115.625 476.466 115.867 474.25 115.867 471.188V411.236C115.867 408.174 115.625 405.958 115.142 404.588C114.658 403.218 113.732 402.292 112.362 401.808C111.073 401.325 108.977 401.003 106.077 400.841V398.424C113.973 398.666 125.658 398.787 141.129 398.787C152.974 398.787 161.395 398.666 166.391 398.424C165.827 403.742 165.545 408.496 165.545 412.687C165.545 415.829 165.666 418.327 165.907 420.181H163.127C162.563 414.943 161.838 411.075 160.952 408.577C160.065 405.998 158.574 404.145 156.479 403.017C154.384 401.808 151.201 401.204 146.931 401.204H136.898C133.998 401.204 131.862 401.446 130.492 401.929C129.203 402.332 128.317 403.218 127.833 404.588C127.35 405.958 127.108 408.174 127.108 411.236V439.762H135.085C137.906 439.762 140.081 439.117 141.612 437.828C143.143 436.458 144.151 434.886 144.634 433.114C145.198 431.26 145.641 428.964 145.964 426.224L146.326 423.807H149.106C148.865 427.191 148.744 430.978 148.744 435.168V440.97C148.744 445.08 148.985 450.801 149.469 458.134H146.689C146.608 457.57 146.367 455.636 145.964 452.332C145.561 448.948 144.433 446.409 142.579 444.717C140.807 443.025 138.309 442.179 135.085 442.179H127.108V471.188C127.108 474.25 127.35 476.466 127.833 477.836C128.317 479.205 129.203 480.132 130.492 480.616C131.862 481.019 133.998 481.22 136.898 481.22H145.722C150.718 481.22 154.505 480.575 157.084 479.286C159.743 477.916 161.677 475.781 162.885 472.88C164.094 469.898 164.981 465.547 165.545 459.826H168.325C168.083 462.002 167.962 464.903 167.962 468.529Z" fill="white"/>
<path d="M235.09 475.418C236.621 477.594 237.911 479.085 238.958 479.89C240.006 480.696 241.214 481.22 242.584 481.462V484C238.958 483.758 235.695 483.637 232.794 483.637C227.959 483.637 222.278 483.758 215.751 484V481.462C218.41 481.462 220.344 481.301 221.553 480.978C222.762 480.656 223.366 480.132 223.366 479.407C223.366 478.923 223.044 478.239 222.399 477.352L203.543 451.486L188.314 471.429C186.944 473.283 186.259 475.056 186.259 476.748C186.259 478.198 186.863 479.367 188.072 480.253C189.281 481.139 191.094 481.583 193.511 481.583V484C188.918 483.758 184.365 483.637 179.853 483.637C178.966 483.637 177.476 483.718 175.38 483.879L171.754 484V481.583C173.447 481.421 175.38 480.575 177.556 479.044C179.812 477.433 181.706 475.579 183.237 473.484L201.851 449.189L179.974 419.093C178.201 416.675 176.871 415.104 175.985 414.379C175.098 413.573 173.93 413.13 172.48 413.049V410.511C176.106 410.753 179.369 410.874 182.27 410.874C187.105 410.874 192.786 410.753 199.313 410.511V413.049C196.654 413.049 194.72 413.21 193.511 413.533C192.302 413.855 191.698 414.379 191.698 415.104C191.698 415.588 192.02 416.272 192.665 417.159L210.312 441.333L224.454 422.961C225.824 421.188 226.508 419.496 226.508 417.884C226.508 416.434 225.864 415.265 224.575 414.379C223.285 413.412 221.392 412.928 218.894 412.928V410.511C223.487 410.753 228.04 410.874 232.552 410.874C236.017 410.874 238.716 410.753 240.65 410.511V412.928C238.878 413.09 236.944 413.895 234.849 415.346C232.834 416.796 230.9 418.73 229.047 421.148L211.762 443.508L235.09 475.418Z" fill="white"/>
<path d="M265.339 454.266V471.188C265.339 474.25 265.581 476.466 266.064 477.836C266.548 479.205 267.434 480.132 268.723 480.616C270.093 481.099 272.229 481.421 275.129 481.583V484C271.423 483.758 266.306 483.637 259.779 483.637C252.849 483.637 247.692 483.758 244.308 484V481.583C247.208 481.421 249.304 481.099 250.593 480.616C251.963 480.132 252.889 479.205 253.373 477.836C253.856 476.466 254.098 474.25 254.098 471.188V423.323C254.098 420.261 253.856 418.045 253.373 416.675C252.889 415.305 251.963 414.379 250.593 413.895C249.304 413.412 247.208 413.09 244.308 412.928V410.511C247.692 410.753 252.607 410.874 259.054 410.874L272.108 410.753C273.639 410.672 275.371 410.632 277.305 410.632C285.927 410.632 292.535 412.485 297.128 416.192C301.721 419.818 304.017 424.693 304.017 430.817C304.017 434.685 303.05 438.392 301.117 441.937C299.263 445.483 296.04 448.424 291.447 450.761C286.934 453.098 280.931 454.266 273.437 454.266H265.339ZM274.283 412.928C271.785 412.928 269.892 413.21 268.602 413.774C267.394 414.339 266.548 415.346 266.064 416.796C265.581 418.247 265.339 420.422 265.339 423.323V451.849H272.229C279.642 451.849 284.759 450.076 287.579 446.53C290.48 442.985 291.93 438.19 291.93 432.147C291.93 425.62 290.561 420.785 287.821 417.642C285.081 414.5 280.569 412.928 274.283 412.928Z" fill="white"/>
<path d="M346.492 408.819C353.905 408.819 360.392 410.31 365.952 413.291C371.593 416.192 375.944 420.503 379.006 426.224C382.068 431.865 383.599 438.633 383.599 446.53C383.599 454.266 381.987 461.115 378.764 467.078C375.622 472.961 371.23 477.554 365.589 480.857C359.949 484.081 353.543 485.692 346.371 485.692C338.958 485.692 332.431 484.242 326.79 481.341C321.23 478.359 316.919 474.048 313.857 468.408C310.795 462.687 309.264 455.878 309.264 447.981C309.264 440.245 310.835 433.436 313.978 427.554C317.201 421.591 321.633 416.998 327.274 413.774C332.914 410.471 339.32 408.819 346.492 408.819ZM346.008 410.994C341.093 410.994 336.742 412.566 332.954 415.708C329.248 418.77 326.387 423.081 324.373 428.641C322.358 434.121 321.351 440.406 321.351 447.497C321.351 454.669 322.479 460.994 324.735 466.474C326.992 471.953 330.054 476.184 333.921 479.165C337.789 482.066 342.1 483.517 346.855 483.517C351.77 483.517 356.081 481.985 359.788 478.923C363.575 475.781 366.476 471.47 368.49 465.99C370.505 460.43 371.512 454.105 371.512 447.014C371.512 439.842 370.384 433.517 368.128 428.037C365.871 422.558 362.809 418.368 358.942 415.467C355.074 412.485 350.763 410.994 346.008 410.994Z" fill="white"/>
<path d="M455.605 438.795C464.468 440.003 470.794 442.582 474.581 446.53C478.368 450.398 480.262 455.072 480.262 460.551C480.262 465.144 479.094 469.214 476.757 472.759C474.42 476.305 471.076 479.085 466.725 481.099C462.373 483.033 457.216 484 451.253 484C449.078 484 447.224 483.96 445.693 483.879C440.536 483.718 435.46 483.637 430.464 483.637C423.856 483.637 418.86 483.758 415.476 484V481.583C418.377 481.421 420.472 481.099 421.761 480.616C423.131 480.132 424.057 479.205 424.541 477.836C425.024 476.466 425.266 474.25 425.266 471.188V411.236C425.266 408.174 425.024 405.958 424.541 404.588C424.057 403.218 423.131 402.292 421.761 401.808C420.472 401.325 418.377 401.003 415.476 400.841V398.424C418.86 398.666 423.775 398.787 430.222 398.787L443.276 398.666C444.807 398.585 446.539 398.545 448.473 398.545C456.692 398.545 462.978 400.277 467.329 403.742C471.761 407.207 473.977 411.8 473.977 417.521C473.977 422.195 472.486 426.385 469.505 430.092C466.604 433.799 461.97 436.619 455.605 438.553V438.795ZM445.451 400.841C442.953 400.841 441.06 401.123 439.771 401.687C438.562 402.252 437.716 403.259 437.232 404.709C436.749 406.16 436.507 408.335 436.507 411.236V438.553H444.605C451.213 438.553 455.806 436.78 458.385 433.235C461.044 429.608 462.373 424.814 462.373 418.851C462.373 412.807 461.044 408.295 458.385 405.314C455.725 402.332 451.414 400.841 445.451 400.841ZM445.572 481.22C460.641 481.22 468.175 474.169 468.175 460.068C468.175 453.702 466.443 448.867 462.978 445.563C459.593 442.26 454.154 440.608 446.66 440.608H436.507V471.188C436.507 474.089 436.749 476.224 437.232 477.594C437.716 478.964 438.562 479.931 439.771 480.495C441.06 480.978 442.994 481.22 445.572 481.22Z" fill="white"/>
<path d="M524.506 408.819C531.92 408.819 538.406 410.31 543.966 413.291C549.607 416.192 553.958 420.503 557.02 426.224C560.082 431.865 561.613 438.633 561.613 446.53C561.613 454.266 560.002 461.115 556.779 467.078C553.636 472.961 549.244 477.554 543.604 480.857C537.963 484.081 531.557 485.692 524.385 485.692C516.972 485.692 510.445 484.242 504.804 481.341C499.244 478.359 494.933 474.048 491.871 468.408C488.809 462.687 487.278 455.878 487.278 447.981C487.278 440.245 488.85 433.436 491.992 427.554C495.215 421.591 499.647 416.998 505.288 413.774C510.928 410.471 517.335 408.819 524.506 408.819ZM524.023 410.994C519.107 410.994 514.756 412.566 510.969 415.708C507.262 418.77 504.401 423.081 502.387 428.641C500.372 434.121 499.365 440.406 499.365 447.497C499.365 454.669 500.493 460.994 502.75 466.474C505.006 471.953 508.068 476.184 511.936 479.165C515.804 482.066 520.115 483.517 524.869 483.517C529.784 483.517 534.095 481.985 537.802 478.923C541.589 475.781 544.49 471.47 546.505 465.99C548.519 460.43 549.526 454.105 549.526 447.014C549.526 439.842 548.398 433.517 546.142 428.037C543.886 422.558 540.824 418.368 536.956 415.467C533.088 412.485 528.777 410.994 524.023 410.994Z" fill="white"/>
<path d="M600.161 410.511C612.731 410.511 622.159 413.573 628.444 419.697C634.81 425.741 637.993 434.604 637.993 446.289C637.993 453.863 636.462 460.511 633.4 466.232C630.338 471.873 625.866 476.264 619.983 479.407C614.181 482.469 607.211 484 599.073 484L592.062 483.879C587.55 483.718 584.246 483.637 582.151 483.637C575.543 483.637 570.547 483.758 567.163 484V481.583C570.064 481.421 572.159 481.099 573.448 480.616C574.818 480.132 575.745 479.205 576.228 477.836C576.712 476.466 576.953 474.25 576.953 471.188V423.323C576.953 420.261 576.712 418.045 576.228 416.675C575.745 415.305 574.818 414.379 573.448 413.895C572.159 413.412 570.064 413.09 567.163 412.928V410.511C569.983 410.753 573.891 410.874 578.887 410.874L589.161 410.753C594.641 410.592 598.307 410.511 600.161 410.511ZM597.139 412.687C594.641 412.687 592.747 412.969 591.458 413.533C590.249 414.097 589.403 415.104 588.92 416.554C588.436 418.005 588.194 420.181 588.194 423.081V471.429C588.194 474.33 588.436 476.506 588.92 477.956C589.403 479.407 590.249 480.414 591.458 480.978C592.747 481.542 594.681 481.824 597.26 481.824C604.592 481.824 610.354 480.535 614.544 477.956C618.734 475.297 621.675 471.429 623.368 466.353C625.06 461.276 625.906 454.749 625.906 446.772C625.906 435.007 623.73 426.385 619.379 420.906C615.028 415.426 607.614 412.687 597.139 412.687Z" fill="white"/>
<path d="M701.635 473.847C703.81 478.843 706.59 481.421 709.975 481.583V484C706.752 483.758 702.441 483.637 697.042 483.637C690.112 483.637 684.955 483.758 681.57 484V481.583C684.552 481.421 686.727 481.019 688.097 480.374C689.548 479.729 690.273 478.641 690.273 477.11C690.273 475.821 689.709 473.927 688.581 471.429L682.416 457.65H653.045L648.935 466.716C647.566 469.858 646.881 472.437 646.881 474.451C646.881 476.546 647.606 478.198 649.056 479.407C650.587 480.535 653.005 481.26 656.308 481.583V484C653.891 483.758 650.225 483.637 645.309 483.637C640.394 483.637 636.889 483.758 634.794 484V481.583C636.969 481.019 638.823 479.81 640.354 477.956C641.885 476.023 643.335 473.484 644.705 470.342L671.417 409.907H673.351L701.635 473.847ZM681.449 455.233L667.791 424.532L654.012 455.233H681.449Z" fill="white"/>
<path d="M499.925 511.215C503.544 511.215 506.388 512.068 508.457 513.774C510.525 515.481 511.559 517.885 511.559 520.988C511.559 523.108 510.99 525.176 509.853 527.193C508.767 529.157 507.422 530.967 505.82 532.622C504.268 534.276 502.2 536.267 499.615 538.594C497.495 540.559 495.918 542.058 494.883 543.093C493.849 544.075 492.919 545.135 492.091 546.273H507.836C509.232 546.273 510.266 546.169 510.939 545.962C511.662 545.704 512.154 545.316 512.412 544.799C512.671 544.23 512.878 543.403 513.033 542.317H514.351C514.351 547.074 514.455 550.513 514.661 552.633C513.524 552.374 509.672 552.245 503.105 552.245H484.956V550.926C485.835 549.995 487.334 548.522 489.454 546.505C492.401 543.765 494.858 541.309 496.822 539.137C498.787 536.914 500.468 534.406 501.864 531.614C503.312 528.821 504.036 525.848 504.036 522.694C504.036 517.11 501.45 514.317 496.28 514.317C492.04 514.317 488.575 516.748 485.886 521.608L484.645 520.91C485.99 518.118 487.903 515.817 490.385 514.007C492.867 512.146 496.047 511.215 499.925 511.215Z" fill="white"/>
<path d="M540.917 508.423C540.917 513.697 541.02 517.472 541.227 519.747C540.141 519.488 536.548 519.359 530.446 519.359H522.225L521.294 534.328C522.742 533.604 524.138 533.036 525.482 532.622C526.827 532.208 528.456 532.001 530.369 532.001C534.867 532.001 538.28 533.113 540.607 535.336C542.934 537.508 544.097 540.378 544.097 543.946C544.097 547.772 542.83 551.185 540.297 554.184C537.815 557.235 534.583 559.587 530.601 561.242C526.672 562.896 522.639 563.724 518.502 563.724V562.328C521.656 562.276 524.603 561.578 527.344 560.234C530.136 558.889 532.385 556.898 534.092 554.261C535.85 551.624 536.729 548.444 536.729 544.721C536.729 541.464 535.876 538.93 534.169 537.12C532.463 535.259 530.059 534.328 526.956 534.328C525.715 534.328 524.655 534.432 523.776 534.638C522.897 534.845 521.837 535.181 520.596 535.647L519.82 535.181L521.294 512.068C522.328 512.275 523.724 512.378 525.482 512.378H534.247C535.643 512.378 536.677 512.275 537.349 512.068C538.073 511.81 538.564 511.422 538.823 510.905C539.081 510.336 539.288 509.509 539.443 508.423H540.917Z" fill="white"/>
<path d="M599.411 545.73C600.807 548.935 602.591 550.59 604.762 550.693V552.245C602.694 552.09 599.928 552.012 596.463 552.012C592.017 552.012 588.707 552.09 586.536 552.245V550.693C588.449 550.59 589.845 550.332 590.724 549.918C591.655 549.504 592.12 548.806 592.12 547.824C592.12 546.996 591.758 545.781 591.034 544.178L587.079 535.336H568.231L565.594 541.154C564.715 543.17 564.276 544.825 564.276 546.117C564.276 547.462 564.741 548.522 565.672 549.297C566.654 550.021 568.205 550.487 570.325 550.693V552.245C568.774 552.09 566.421 552.012 563.267 552.012C560.113 552.012 557.864 552.09 556.52 552.245V550.693C557.916 550.332 559.105 549.556 560.087 548.367C561.07 547.126 562 545.497 562.88 543.48L580.021 504.7H581.261L599.411 545.73ZM586.458 533.785L577.694 514.085L568.852 533.785H586.458Z" fill="white"/>
<path d="M651.858 506.639C650.049 506.742 648.704 507.027 647.825 507.492C646.946 507.906 646.352 508.63 646.041 509.664C645.731 510.646 645.576 512.12 645.576 514.085V552.633H643.792L612.768 509.664V543.248C612.768 545.264 612.923 546.764 613.233 547.746C613.595 548.729 614.267 549.453 615.25 549.918C616.232 550.332 617.757 550.59 619.826 550.693V552.245C617.964 552.09 615.327 552.012 611.914 552.012C608.812 552.012 606.408 552.09 604.701 552.245V550.693C606.511 550.59 607.855 550.332 608.734 549.918C609.613 549.453 610.208 548.729 610.518 547.746C610.829 546.712 610.984 545.213 610.984 543.248V513.309C610.984 511.344 610.829 509.922 610.518 509.043C610.208 508.164 609.613 507.57 608.734 507.259C607.907 506.949 606.563 506.742 604.701 506.639V505.088C606.408 505.243 608.812 505.32 611.914 505.32C614.707 505.32 617.085 505.243 619.05 505.088L643.792 539.525V514.085C643.792 512.068 643.611 510.569 643.249 509.586C642.939 508.604 642.293 507.906 641.31 507.492C640.328 507.027 638.802 506.742 636.734 506.639V505.088C638.595 505.243 641.233 505.32 644.645 505.32C647.748 505.32 650.152 505.243 651.858 505.088V506.639ZM621.842 487.249C623.135 487.249 624.35 487.507 625.488 488.024C626.677 488.541 628.099 489.317 629.753 490.351C631.253 491.334 632.52 492.057 633.554 492.523C634.64 492.988 635.752 493.221 636.889 493.221C639.526 493.221 641.336 491.721 642.318 488.722L643.637 489.11C643.068 491.695 642.034 493.712 640.534 495.16C639.035 496.608 637.199 497.332 635.028 497.332C633.735 497.332 632.494 497.073 631.305 496.556C630.167 496.039 628.771 495.263 627.116 494.229C625.617 493.247 624.324 492.523 623.238 492.057C622.204 491.592 621.118 491.359 619.981 491.359C618.688 491.359 617.576 491.721 616.646 492.445C615.767 493.117 615.069 494.255 614.552 495.858L613.233 495.47C613.802 492.885 614.836 490.868 616.335 489.42C617.835 487.973 619.671 487.249 621.842 487.249Z" fill="white"/>
<path d="M678.528 504.002C683.285 504.002 687.447 504.958 691.015 506.872C694.635 508.733 697.427 511.499 699.392 515.171C701.357 518.79 702.339 523.134 702.339 528.201C702.339 533.165 701.305 537.56 699.237 541.386C697.22 545.161 694.402 548.108 690.782 550.228C687.163 552.296 683.052 553.331 678.45 553.331C673.693 553.331 669.505 552.4 665.885 550.538C662.318 548.625 659.551 545.859 657.586 542.239C655.621 538.568 654.639 534.199 654.639 529.132C654.639 524.168 655.647 519.798 657.664 516.024C659.732 512.197 662.576 509.25 666.196 507.182C669.815 505.062 673.926 504.002 678.528 504.002ZM678.218 505.398C675.063 505.398 672.271 506.406 669.841 508.423C667.462 510.388 665.627 513.154 664.334 516.722C663.041 520.238 662.395 524.271 662.395 528.821C662.395 533.423 663.119 537.482 664.567 540.998C666.015 544.515 667.98 547.229 670.461 549.142C672.943 551.004 675.71 551.935 678.76 551.935C681.915 551.935 684.681 550.952 687.06 548.987C689.49 546.971 691.351 544.204 692.644 540.688C693.937 537.12 694.583 533.061 694.583 528.511C694.583 523.909 693.859 519.85 692.411 516.334C690.963 512.818 688.999 510.129 686.517 508.268C684.035 506.355 681.268 505.398 678.218 505.398Z" fill="white"/>
<path d="M723.18 504.002C725.455 504.002 727.239 504.26 728.532 504.777C729.876 505.243 731.246 505.941 732.642 506.872C733.78 507.595 734.659 507.957 735.279 507.957C735.745 507.957 736.107 507.699 736.365 507.182C736.624 506.613 736.831 505.734 736.986 504.545H738.77C738.511 507.234 738.382 511.991 738.382 518.816H736.598C736.288 515.093 735.073 511.939 732.953 509.354C730.884 506.768 727.859 505.475 723.878 505.475C721.137 505.475 718.862 506.199 717.053 507.647C715.295 509.095 714.416 510.931 714.416 513.154C714.416 514.757 714.803 516.153 715.579 517.342C716.406 518.532 717.44 519.566 718.681 520.445C719.974 521.272 721.784 522.306 724.111 523.547L726.67 524.943C729.876 526.65 732.436 528.175 734.349 529.519C736.314 530.864 737.891 532.415 739.08 534.173C740.269 535.879 740.864 537.87 740.864 540.145C740.864 544.334 739.338 547.591 736.288 549.918C733.289 552.193 729.514 553.331 724.964 553.331C722.482 553.331 720.439 553.072 718.836 552.555C717.285 552.038 715.786 551.34 714.338 550.461C713.2 549.737 712.321 549.375 711.701 549.375C711.236 549.375 710.874 549.659 710.615 550.228C710.357 550.745 710.15 551.598 709.995 552.788H708.211C708.417 550.254 708.521 544.566 708.521 535.724H710.305C710.667 540.533 711.959 544.411 714.183 547.358C716.406 550.306 719.819 551.779 724.421 551.779C727.006 551.779 729.23 551.055 731.091 549.608C733.004 548.108 733.961 545.911 733.961 543.015C733.961 541.309 733.47 539.809 732.487 538.516C731.505 537.172 730.186 535.983 728.532 534.949C726.877 533.914 724.576 532.622 721.629 531.071C717.389 528.899 714.157 526.727 711.934 524.555C709.71 522.384 708.598 519.566 708.598 516.101C708.598 512.275 709.995 509.302 712.787 507.182C715.631 505.062 719.095 504.002 723.18 504.002Z" fill="white"/>
</svg>
