<svg width="216" height="269" viewBox="0 0 216 269" fill="none" xmlns="http://www.w3.org/2000/svg">
<path d="M152.74 268.72H0V63.01C0 28.21 28.21 0 63.01 0H152.74C187.54 0 215.75 28.21 215.75 63.01V205.71C215.75 240.51 187.54 268.72 152.74 268.72Z" fill="#E71A00"/>
<path d="M40.83 248.07H24.66V99.75H40.83V248.07Z" fill="white"/>
<path d="M93.01 227.38C93.01 229.18 92.98 230.72 92.91 232C92.72 235.4 92.27 238.13 91.56 240.18C89.7 245.44 85.5 248.07 78.95 248.07H51.23V99.75H79.43C85.91 99.75 90.02 102.41 91.75 107.74C92.46 109.79 92.87 112.52 93 115.92C93.06 117.2 93.1 118.78 93.1 120.64L93 227.38H93.01ZM76.65 123.14C76.65 120.25 75.69 118.26 73.76 117.17C72.8 116.66 71.83 116.43 70.87 116.5H67.41V231.52H70.87C71.83 231.58 72.8 231.36 73.76 230.85C75.69 229.76 76.65 227.77 76.65 224.88V123.14Z" fill="white"/>
<path d="M119.69 115.92V165.87H135.76V182.04H119.69V231.9H135.76V248.07H103.52V99.75H135.76V115.92H119.69Z" fill="white"/>
</svg>
