<?xml version="1.0" encoding="UTF-8"?>
<svg id="Capa_2" data-name="Capa 2" xmlns="http://www.w3.org/2000/svg" viewBox="0 0 81.55 110.94">
  <defs>
    <style>
      .cls-1 {
        fill: #176d85;
      }
    </style>
  </defs>
  <g id="Capa_1-2" data-name="Capa 1">
    <g>
      <path class="cls-1" d="M40.77,0c-10.81.01-21.17,4.31-28.82,11.95C4.31,19.6.01,29.96,0,40.77c0,34.47,36.57,67.76,38.12,69.14h0c.73.66,1.67,1.02,2.66,1.02s1.93-.36,2.66-1.02c1.55-1.39,38.12-34.67,38.12-69.14h0c-.01-10.81-4.31-21.17-11.95-28.82C61.95,4.31,51.58.01,40.77,0h0ZM40.77,101.48c-8.24-8.16-32.85-34.79-32.85-60.7,0-11.73,6.26-22.58,16.42-28.45,10.16-5.87,22.69-5.87,32.85,0,10.16,5.87,16.42,16.71,16.42,28.45,0,25.88-24.61,52.5-32.85,60.7h0Z"/>
      <path class="cls-1" d="M40.77,19.81c-5.25,0-10.29,2.09-14.01,5.8-3.72,3.72-5.8,8.75-5.8,14.01s2.09,10.29,5.8,14.01c3.72,3.72,8.75,5.8,14.01,5.8s10.29-2.09,14.01-5.8c3.72-3.72,5.8-8.75,5.8-14.01s-2.09-10.29-5.8-14.01c-3.72-3.72-8.75-5.8-14.01-5.8ZM40.77,51.51c-3.15,0-6.18-1.25-8.41-3.48-2.23-2.23-3.48-5.25-3.48-8.41s1.25-6.18,3.48-8.41c2.23-2.23,5.25-3.48,8.41-3.48s6.18,1.25,8.41,3.48c2.23,2.23,3.48,5.25,3.48,8.41s-1.25,6.18-3.48,8.41c-2.23,2.23-5.25,3.48-8.41,3.48Z"/>
    </g>
  </g>
</svg>