<svg preserveAspectRatio="xMidYMid meet" data-bbox="44.5 2 110.5 195.099" viewBox="44.5 2 110.5 195.099" height="200" width="200" xmlns="http://www.w3.org/2000/svg" data-type="color" role="presentation" aria-hidden="true"><defs><style>#comp-jf89xfrj svg [data-color="1"] {fill: #FFFFFF;}</style></defs>
    <g>
        <path d="M100 46.2c-3.3 0-5.9 2.7-5.9 5.9v7c0 3.3 2.7 5.9 5.9 5.9s5.9-2.6 5.9-5.9v-7c0-3.3-2.7-5.9-5.9-5.9z" fill="#ffffff" data-color="1"></path>
        <path d="M99.8 2C69.308 2 44.5 26.808 44.5 57.3v84.6c0 30.437 24.808 55.199 55.3 55.199 30.438 0 55.2-24.763 55.2-55.199V57.3C155 26.808 130.237 2 99.8 2zM149 141.9c0 27.129-22.071 49.199-49.2 49.199-27.184 0-49.3-22.07-49.3-49.199V57.3C50.5 30.116 72.616 8 99.8 8 126.929 8 149 30.116 149 57.3v84.6z" fill="#ffffff" data-color="1"></path>
    </g>
</svg>